<svg width="321" height="616" viewBox="0 0 321 616" fill="none" xmlns="http://www.w3.org/2000/svg">
<mask id="mask0_8_321" style="mask-type:luminance" maskUnits="userSpaceOnUse" x="0" y="0" width="350" height="650">
<path d="M350 0H0V650H350V0Z" fill="white"/>
</mask>
<g mask="url(#mask0_8_321)">
<path d="M197.815 563.541H197.813C183.6 563.541 171.906 562.055 170.442 558.176C171.189 562.222 174.39 579.868 174.85 587.463C175.372 596.069 173.545 607.593 181.504 610.655C189.463 613.719 192.725 614.594 197.813 614.594C202.902 614.594 206.165 613.719 214.124 610.655C222.083 607.593 220.254 596.069 220.776 587.463C221.237 579.868 224.439 562.222 225.186 558.176C223.722 562.055 212.028 563.541 197.815 563.541Z" fill="#4F3A08"/>
<path d="M197.815 563.541H197.813C183.6 563.541 171.906 562.055 170.442 558.176C171.189 562.222 174.39 579.868 174.85 587.463C175.372 596.069 173.545 607.593 181.504 610.655C189.463 613.719 192.725 614.594 197.813 614.594C202.902 614.594 206.165 613.719 214.124 610.655C222.083 607.593 220.254 596.069 220.776 587.463C221.237 579.868 224.439 562.222 225.186 558.176C223.722 562.055 212.028 563.541 197.815 563.541Z" stroke="#4E300C" stroke-width="2" stroke-linecap="round" stroke-linejoin="round"/>
<path d="M225.343 557.33C225.343 561.841 213.017 563.542 197.813 563.542C182.609 563.542 170.283 561.841 170.283 557.33C170.283 552.818 182.609 547.204 197.813 547.204C213.017 547.204 225.343 552.818 225.343 557.33Z" fill="#8B7648"/>
<path d="M225.343 557.33C225.343 561.841 213.017 563.542 197.813 563.542C182.609 563.542 170.283 561.841 170.283 557.33C170.283 552.818 182.609 547.204 197.813 547.204C213.017 547.204 225.343 552.818 225.343 557.33Z" stroke="#4D2F0C" stroke-width="2" stroke-linecap="round" stroke-linejoin="round"/>
<path d="M121.714 417.661C121.714 417.661 127.127 418.049 129.071 417.404C131.014 416.761 132.82 414.441 128.239 410.705C123.658 406.97 105.751 389.705 98.393 379.915C91.0363 370.124 87.2879 364.842 84.6504 363.555C82.0128 362.266 73.5453 360.204 66.1875 353.892C58.8308 347.579 54.9445 341.397 42.3116 341.138C44.6722 343.715 48.1415 346.936 48.1415 346.936L37.4523 343.714C37.4523 343.714 29.2628 343.844 25.9313 345.39C28.5689 346.808 34.5379 350.699 34.5379 350.699L22.184 348.481C22.184 348.481 27.875 359.561 40.2289 360.849C41.6177 364.971 54.9445 383.781 63.273 385.841C67.4373 389.449 98.8089 414.312 121.714 417.661Z" fill="#4BA419"/>
<path d="M121.714 417.661C121.714 417.661 127.127 418.049 129.071 417.404C131.014 416.761 132.82 414.441 128.239 410.705C123.658 406.97 105.751 389.705 98.393 379.915C91.0363 370.124 87.2879 364.842 84.6504 363.555C82.0128 362.266 73.5453 360.204 66.1875 353.892C58.8308 347.579 54.9445 341.397 42.3116 341.138C44.6722 343.715 48.1415 346.936 48.1415 346.936L37.4523 343.714C37.4523 343.714 29.2628 343.844 25.9313 345.39C28.5689 346.808 34.5379 350.699 34.5379 350.699L22.184 348.481C22.184 348.481 27.875 359.561 40.2289 360.849C41.6177 364.971 54.9445 383.781 63.273 385.841C67.4373 389.449 98.8089 414.312 121.714 417.661Z" stroke="#2A7300" stroke-width="1.97867" stroke-linecap="round" stroke-linejoin="round"/>
<path d="M172.244 482.977C157.39 453.991 137.956 422.428 131.016 414.57C131.016 414.57 112.831 396.019 89.5107 377.855C66.1885 359.69 47.1697 347.193 34.3989 352.089C34.3989 352.089 47.9711 347.859 82.2593 375.556C107.974 396.33 124.305 413.482 129.729 418.349C134.282 424.915 161.494 464.61 173.769 492.897C187.192 523.822 193.081 560.745 193.081 560.745C193.715 560.794 195.79 560.955 195.79 560.955C195.79 560.955 187.097 511.963 172.244 482.977Z" fill="#2A7300"/>
<path d="M126.996 176.835L135.228 186.963L122.878 179.28C122.878 179.28 121.644 201.023 119.996 205.694C118.349 210.364 119.974 249.442 139.539 257.843C159.106 266.244 166.516 266.942 166.516 266.942C166.516 266.942 190.652 263.799 195.875 256.813C201.096 249.828 200.397 226.97 190.866 207.542C181.336 188.112 167.062 172.294 163.084 169.85V178.582L159.311 167.519C159.311 167.519 146.32 162.153 139.539 164.96C132.758 167.767 126.996 176.835 126.996 176.835Z" fill="#4BA419"/>
<path d="M126.996 176.835L135.228 186.963L122.878 179.28C122.878 179.28 121.644 201.023 119.996 205.694C118.349 210.364 119.974 249.442 139.539 257.843C159.106 266.244 166.516 266.942 166.516 266.942C166.516 266.942 190.652 263.799 195.875 256.813C201.096 249.828 200.397 226.97 190.866 207.542C181.336 188.112 167.062 172.294 163.084 169.85V178.582L159.311 167.519C159.311 167.519 146.32 162.153 139.539 164.96C132.758 167.767 126.996 176.835 126.996 176.835Z" stroke="#2A7300" stroke-width="2.22572" stroke-linecap="round" stroke-linejoin="round"/>
<path d="M149.754 191.621L166.141 270.076C166.141 270.076 191.074 554.148 191.14 562.297L193.749 562.339L197.109 562.428C197.109 562.428 184.865 402.297 179.969 365.149C175.071 328 170.901 266.248 170.901 266.248L149.754 191.621Z" fill="#2A7300"/>
<path d="M131.866 305.69L125.379 306.709C125.379 306.709 112.229 315.019 96.9761 302.299C81.7211 289.58 76.111 281.44 71.7286 272.791C67.345 264.143 61.2081 259.054 55.598 241.248C49.9868 223.441 47.5327 220.728 45.6033 217.676C43.675 214.623 43.5001 206.142 45.6033 206.481C47.7076 206.821 51.5654 211.06 51.5654 211.06L50.1629 206.473C50.1629 206.473 60.1565 206.651 62.7866 208.687C65.4167 210.721 69.6243 215.81 69.6243 215.81L66.4683 208.687C66.4683 208.687 76.111 211.908 80.6695 215.639C85.229 219.369 95.0466 231.412 98.0277 233.447C101.009 235.481 103.463 238.535 103.463 238.535L107.67 245.995L107.321 235.821C107.321 235.821 110.477 242.434 112.404 244.469C114.333 246.504 119.592 256.002 120.996 259.054C122.398 262.107 125.379 272.791 127.834 276.183C130.288 279.574 143.679 290.936 139.789 298.06C135.899 305.182 131.866 305.69 131.866 305.69Z" fill="#4BA419"/>
<path d="M131.866 305.69L125.379 306.709C125.379 306.709 112.229 315.019 96.9761 302.299C81.7211 289.58 76.111 281.44 71.7286 272.791C67.345 264.143 61.2081 259.054 55.598 241.248C49.9868 223.441 47.5327 220.728 45.6033 217.676C43.675 214.623 43.5001 206.142 45.6033 206.481C47.7076 206.821 51.5654 211.06 51.5654 211.06L50.1629 206.473C50.1629 206.473 60.1565 206.651 62.7866 208.687C65.4167 210.721 69.6243 215.81 69.6243 215.81L66.4683 208.687C66.4683 208.687 76.111 211.908 80.6695 215.639C85.229 219.369 95.0466 231.412 98.0277 233.447C101.009 235.481 103.463 238.535 103.463 238.535L107.67 245.995L107.321 235.821C107.321 235.821 110.477 242.434 112.404 244.469C114.333 246.504 119.592 256.002 120.996 259.054C122.398 262.107 125.379 272.791 127.834 276.183C130.288 279.574 143.679 290.936 139.789 298.06C135.899 305.182 131.866 305.69 131.866 305.69Z" stroke="#2A7300" stroke-width="2.07236" stroke-linecap="round" stroke-linejoin="round"/>
<path d="M128.184 311.117L125.378 306.709C125.378 306.709 79.2669 235.99 61.3829 220.218C73.306 229.037 122.398 290.088 131.866 305.69C131.339 309.251 130.64 311.117 130.64 311.117C130.64 311.117 141.236 336.714 155.886 381.072C170.711 425.961 189.624 490.031 195.2 560.65L192.925 560.609C192.925 560.609 187.926 504.531 176.75 458.403C167.933 422.007 128.184 311.117 128.184 311.117Z" fill="#2A7300"/>
<path d="M150.711 418.578C147.987 418.358 146.499 424.527 142.287 421.941C140.283 419.903 139.48 418.838 136.571 420.648C133.663 422.457 130.253 426.682 121.83 424.269C113.408 421.855 105.685 418.751 97.2635 408.75C88.8393 398.751 86.7333 377.371 86.0317 374.354C85.3288 371.337 85.5317 361.422 85.5317 361.422L97.2635 365.904L86.3328 356.077C86.3328 356.077 87.8367 347.112 91.3472 343.491C93.3511 344.957 96.9611 347.456 96.9611 347.456L93.9532 340.475C93.9532 340.475 97.7635 336.077 100.271 335.473C102.778 334.87 124.84 342.37 130.154 350.474C130.053 359.268 129.953 360.216 129.953 360.216L133.363 351.249C133.363 351.249 150.108 371.423 153.918 375.906C157.73 380.388 167.958 393.666 168.259 401.941C168.559 410.218 162.443 419.527 150.711 418.578Z" fill="#4BA419"/>
<path d="M150.711 418.578C147.987 418.358 146.499 424.527 142.287 421.941C140.283 419.903 139.48 418.838 136.571 420.648C133.663 422.457 130.253 426.682 121.83 424.269C113.408 421.855 105.685 418.751 97.2635 408.75C88.8393 398.751 86.7333 377.371 86.0317 374.354C85.3288 371.337 85.5317 361.422 85.5317 361.422L97.2635 365.904L86.3328 356.077C86.3328 356.077 87.8367 347.112 91.3472 343.491C93.3511 344.957 96.9611 347.456 96.9611 347.456L93.9532 340.475C93.9532 340.475 97.7635 336.077 100.271 335.473C102.778 334.87 124.84 342.37 130.154 350.474C130.053 359.268 129.953 360.216 129.953 360.216L133.363 351.249C133.363 351.249 150.108 371.423 153.918 375.906C157.73 380.388 167.958 393.666 168.259 401.941C168.559 410.218 162.443 419.527 150.711 418.578Z" stroke="#2A7300" stroke-width="2.26605" stroke-linecap="round" stroke-linejoin="round"/>
<path d="M171.587 478.943C157.717 446.549 146.178 420.224 145.465 419.12C143.152 415.542 109.862 352.938 98.7661 341.411C98.7661 341.411 108.706 359.136 122.665 384.657C128.853 395.968 136.878 408.721 143.389 422.293C166.225 469.89 187.075 526.059 190.311 550.69L191.156 561.275L194.556 561.368C194.556 561.368 185.457 508.556 171.587 478.943Z" fill="#2A7300"/>
<path d="M225.149 192.669C225.149 192.669 224.505 186.976 220.967 184.868C217.429 182.761 202.632 177.913 202.15 145.028C201.667 112.143 227.4 63.8691 229.169 61.3395C230.135 63.4476 231.903 66.8201 231.903 66.8201V58.8098C231.903 58.8098 242.197 48.0592 248.147 47.6368C254.098 47.2153 256.672 54.172 256.511 55.4373C256.35 56.7017 252.651 64.5012 252.651 64.5012L257.476 60.2859C257.476 60.2859 265.357 88.5321 264.713 112.775C260.049 120.364 258.762 122.682 258.762 122.682L264.751 115.304C264.751 115.304 266.643 135.963 260.371 165.264C254.098 194.565 246.218 194.777 243.323 196.042C240.427 197.307 234.799 196.673 228.204 193.723L225.149 192.669Z" fill="#4BA419"/>
<path d="M225.149 192.669C225.149 192.669 224.505 186.976 220.967 184.868C217.429 182.761 202.632 177.913 202.15 145.028C201.667 112.143 227.4 63.8691 229.169 61.3395C230.135 63.4476 231.903 66.8201 231.903 66.8201V58.8098C231.903 58.8098 242.197 48.0592 248.147 47.6368C254.098 47.2153 256.672 54.172 256.511 55.4373C256.35 56.7017 252.651 64.5012 252.651 64.5012L257.476 60.2859C257.476 60.2859 265.357 88.5321 264.713 112.775C260.049 120.364 258.762 122.682 258.762 122.682L264.751 115.304C264.751 115.304 266.643 135.963 260.371 165.264C254.098 194.565 246.218 194.777 243.323 196.042C240.427 197.307 234.799 196.673 228.204 193.723L225.149 192.669Z" stroke="#2A7300" stroke-width="1.83595" stroke-linecap="round" stroke-linejoin="round"/>
<path d="M247.654 56.2892C247.654 56.2892 234.788 134.983 231.357 149.222C227.926 163.461 224.21 193.44 222.494 202.808C220.779 212.176 208.095 277.754 202.429 359.071C196.764 440.387 196.452 480.803 196.738 502.537C197.024 524.271 198.14 562.479 198.14 562.479L200.377 562.45C200.377 562.45 197.893 492.754 200.752 434.296C203.611 375.838 211.916 286.748 215.918 257.893C219.921 229.04 232.088 169.832 233.58 158.965C235.074 148.098 239.077 140.229 247.654 56.2892Z" fill="#2A7300"/>
<path d="M234.186 261.805C234.186 261.805 246.735 274.08 257.013 261.805C267.291 249.53 272.63 223.66 275.167 212.519L268.226 217.24L275.167 209.496C275.167 209.496 280.373 181.172 279.305 169.086L274.233 171.73L278.372 166.442C278.372 166.442 276.77 159.644 275.034 157.567L269.561 161.155L273.566 154.545C273.566 154.545 269.294 149.825 260.484 155.679C258.348 156.812 255.544 159.644 255.544 159.644L255.011 164.932L254.214 159.266C254.214 159.266 235.12 178.15 228.046 196.656C220.97 215.163 214.964 236.312 231.917 255.574C232.184 256.895 234.186 261.805 234.186 261.805Z" fill="#4BA419"/>
<path d="M234.186 261.805C234.186 261.805 246.735 274.08 257.013 261.805C267.291 249.53 272.63 223.66 275.167 212.519L268.226 217.24L275.167 209.496C275.167 209.496 280.373 181.172 279.305 169.086L274.233 171.73L278.372 166.442C278.372 166.442 276.77 159.644 275.034 157.567L269.561 161.155L273.566 154.545C273.566 154.545 269.294 149.825 260.484 155.679C258.348 156.812 255.544 159.644 255.544 159.644L255.011 164.932L254.214 159.266C254.214 159.266 235.12 178.15 228.046 196.656C220.97 215.163 214.964 236.312 231.917 255.574C232.184 256.895 234.186 261.805 234.186 261.805Z" stroke="#2A7300" stroke-width="1.78652" stroke-linecap="round" stroke-linejoin="round"/>
<path d="M197.908 561.952C197.908 561.952 205.088 416.278 209.026 380.209C212.965 344.138 222.915 285.195 231.621 263.202L234.186 261.805C234.186 261.805 263.698 174.809 268.106 167.014C258.985 182.557 236.804 240.62 230.792 259.975C224.781 279.329 209.324 337.911 203.727 408.291C198.13 478.672 197.602 533.159 196.069 562.129" fill="#2A7300"/>
<path d="M227.371 387.112C229.179 386.842 230.165 394.408 232.96 391.236C234.29 388.737 234.822 387.429 236.752 389.65C238.682 391.872 240.944 397.052 246.531 394.092C252.119 391.131 257.242 387.324 262.831 375.058C268.418 362.793 269.815 336.569 270.281 332.867C270.747 329.167 270.613 317.006 270.613 317.006L262.831 322.505L270.082 310.45C270.082 310.45 269.083 299.454 266.755 295.012C265.425 296.81 263.03 299.876 263.03 299.876L265.026 291.311C265.026 291.311 262.498 285.919 260.835 285.179C259.172 284.439 244.535 293.638 241.01 303.578C241.076 314.362 241.143 315.527 241.143 315.527L238.881 304.529C238.881 304.529 227.771 329.272 225.242 334.771C222.715 340.27 215.928 356.553 215.729 366.705C215.53 376.856 219.588 388.276 227.371 387.112Z" fill="#4BA418"/>
<path d="M227.371 387.112C229.179 386.842 230.165 394.408 232.96 391.236C234.29 388.737 234.822 387.429 236.752 389.65C238.682 391.872 240.944 397.052 246.531 394.092C252.119 391.131 257.242 387.324 262.831 375.058C268.418 362.793 269.815 336.569 270.281 332.867C270.747 329.167 270.613 317.006 270.613 317.006L262.831 322.505L270.082 310.45C270.082 310.45 269.083 299.454 266.755 295.012C265.425 296.81 263.03 299.876 263.03 299.876L265.026 291.311C265.026 291.311 262.498 285.919 260.835 285.179C259.172 284.439 244.535 293.638 241.01 303.578C241.076 314.362 241.143 315.527 241.143 315.527L238.881 304.529C238.881 304.529 227.771 329.272 225.242 334.771C222.715 340.27 215.928 356.553 215.729 366.705C215.53 376.856 219.588 388.276 227.371 387.112Z" stroke="#2A7300" stroke-width="1.83527" stroke-linecap="round" stroke-linejoin="round"/>
<path d="M213.523 461.152C222.725 421.416 230.379 389.13 230.853 387.775C232.387 383.389 254.472 306.601 261.834 292.462C261.834 292.462 255.24 314.202 245.978 345.505C241.875 359.378 236.549 375.021 232.229 391.668C217.078 450.047 203.248 518.941 201.099 549.152L200.539 562.137L198.285 562.25C198.285 562.25 204.321 497.473 213.523 461.152Z" fill="#2A7300"/>
<path d="M267.283 414.75C257.087 420.658 243.434 431.259 241.427 437.202C239.418 443.145 238.163 444.884 237.661 449.956C237.159 455.03 237.159 461.303 239.92 460.973C242.681 460.643 248.957 461.722 253.977 449.956C258.999 438.192 262.513 434.889 266.279 431.918C270.044 428.947 278.773 416.401 281.939 412.439C285.105 408.477 297.405 402.205 300.166 398.572C302.928 394.941 305.689 389.329 305.689 389.329C305.689 389.329 302.928 391.309 300.92 391.639C298.911 391.969 295.648 389.66 293.137 393.456C290.627 397.251 282.092 398.903 278.829 402.206C275.566 405.507 270.558 412.853 267.283 414.75Z" fill="#4BA419"/>
<path d="M267.283 414.75C257.087 420.658 243.434 431.259 241.427 437.202C239.418 443.145 238.163 444.884 237.661 449.956C237.159 455.03 237.159 461.303 239.92 460.973C242.681 460.643 248.957 461.722 253.977 449.956C258.999 438.192 262.513 434.889 266.279 431.918C270.044 428.947 278.773 416.401 281.939 412.439C285.105 408.477 297.405 402.205 300.166 398.572C302.928 394.941 305.689 389.329 305.689 389.329C305.689 389.329 302.928 391.309 300.92 391.639C298.911 391.969 295.648 389.66 293.137 393.456C290.627 397.251 282.092 398.903 278.829 402.206C275.566 405.507 270.558 412.853 267.283 414.75Z" stroke="#297200" stroke-width="1.87805" stroke-linecap="round" stroke-linejoin="round"/>
<path d="M297.694 398.094C297.694 398.094 273.257 412.007 266.167 418.742C259.077 425.477 230.22 459.396 221.088 483.4C211.956 507.403 202.041 562.714 202.041 562.714L198.529 562.758C198.529 562.758 211.036 490.376 230.469 460.985C249.901 431.594 255.416 418.643 297.694 398.094Z" fill="#2A7300"/>
</g>
</svg>
